# xmcd
#
# Track frame offsets:
#	150
#	17383
#	33027
#	49762
#	62665
#	77744
#	96643
#	112483
#	129637
#	146032
#	161294
#	177577
#	200294
#	215814
#
# Disc length: 3226
#
# Revision: 2
# Processed by: cddbd v1.5.1PL0 Copyright (c) Steve Scherf et al.
# Submitted via: NeoAudio 9.9.9
# Normalized: r1:DSETVAR1,TDELIM( - )
#
DISCID=cb0c980e
DTITLE=Various Artist - New Wave Diary Vol 2
DYEAR=1900
DGENRE=New Wave
TTITLE0=Sinead O'Connor - Mandika
TTITLE1=Blondie - Call Me
TTITLE2=Ultravox - All Stood Still
TTITLE3=Pat Benatar - Hit Me With Your Best Shot
TTITLE4=Spandau Ballet - Lifeline
TTITLE5=Billy Idol - Eyes Without A Face
TTITLE6=Colourfield - Thinking Of You
TTITLE7=Generation X - Dancing With Myself
TTITLE8=Funboy Three - Our Lips Are Sealed
TTITLE9=Mighty Lemon Drops - Inside Out
TTITLE10=Pursuit of Happiness - She's So Young
TTITLE11=The Waterboys - The Whole Of The Moon
TTITLE12=The Bible - Graceland
TTITLE13=Stiff Little Fingers - Doesn't Make It Alright
EXTD=
EXTT0=
EXTT1=
EXTT2=
EXTT3=
EXTT4=
EXTT5=
EXTT6=
EXTT7=
EXTT8=
EXTT9=
EXTT10=
EXTT11=
EXTT12=
EXTT13=
PLAYORDER=
